<?xml version="1.0" encoding="UTF-8"?>
<!-- Generated by Pixelmator Pro 3.7.1 -->
<svg width="128" height="128" viewBox="0 0 128 128" xmlns="http://www.w3.org/2000/svg">
    <path id="Path" fill="#1e293b" stroke="none" d="M 124 64 C 124 97.137085 97.137085 124 64 124 C 30.862915 124 4 97.137085 4 64 C 4 30.862915 30.862915 4 64 4 C 97.137085 4 124 30.862915 124 64 Z"/>
    <g id="Group">
        <linearGradient id="linearGradient1" x1="26" y1="28" x2="26" y2="83" gradientUnits="userSpaceOnUse">
            <stop offset="1e-05" stop-color="#4ade80" stop-opacity="1"/>
            <stop offset="1" stop-color="#16a34a" stop-opacity="1"/>
        </linearGradient>
        <path id="path1" fill="url(#linearGradient1)" stroke="none" d="M 26 83 L 38 53 L 32 53 L 44 28 L 56 53 L 50 53 L 62 83 Z"/>
        <linearGradient id="linearGradient2" x1="46" y1="20" x2="46" y2="83" gradientUnits="userSpaceOnUse">
            <stop offset="1e-05" stop-color="#4ade80" stop-opacity="1"/>
            <stop offset="1" stop-color="#16a34a" stop-opacity="1"/>
        </linearGradient>
        <path id="path2" fill="url(#linearGradient2)" stroke="none" d="M 46 83 L 58 48 L 52 48 L 64 20 L 76 48 L 70 48 L 82 83 Z"/>
        <linearGradient id="linearGradient3" x1="66" y1="28" x2="66" y2="83" gradientUnits="userSpaceOnUse">
            <stop offset="1e-05" stop-color="#4ade80" stop-opacity="1"/>
            <stop offset="1" stop-color="#16a34a" stop-opacity="1"/>
        </linearGradient>
        <path id="path3" fill="url(#linearGradient3)" stroke="none" d="M 66 83 L 78 53 L 72 53 L 84 28 L 96 53 L 90 53 L 102 83 Z"/>
        <path id="path4" fill="#16a34a" stroke="none" d="M 18 83 L 110 83 C 112.209137 83 114 84.790863 114 87 L 114 87 C 114 89.209137 112.209137 91 110 91 L 18 91 C 15.790861 91 14 89.209137 14 87 L 14 87 C 14 84.790863 15.790861 83 18 83 Z"/>
        <path id="path5" fill="#854d0e" stroke="none" d="M 40 83 L 48 83 L 48 95 L 40 95 Z"/>
        <path id="path6" fill="#854d0e" stroke="none" d="M 60 83 L 68 83 L 68 95 L 60 95 Z"/>
        <path id="path7" fill="#854d0e" stroke="none" d="M 80 83 L 88 83 L 88 95 L 80 95 Z"/>
    </g>
</svg>
